<?xml version="1.0" encoding="utf-8"?>
<svg viewBox="0 0 22 15" fill="#000000" xmlns="http://www.w3.org/2000/svg">
  <path d="M0 0h24v24H0z" fill="none"/>
  <path d="M 11 0 C 6 0 1.73 3.11 0 7.5 C 1.73 11.89 6 15 11 15 C 16 15 20.27 11.89 22 7.5 C 20.27 3.11 16 0 11 0 Z M 11 12.5 C 8.24 12.5 6 10.26 6 7.5 C 6 4.74 8.24 2.5 11 2.5 C 13.76 2.5 16 4.74 16 7.5 C 16 10.26 13.76 12.5 11 12.5 Z M 11 4.5 C 9.34 4.5 8 5.84 8 7.5 C 8 9.16 9.34 10.5 11 10.5 C 12.66 10.5 14 9.16 14 7.5 C 14 5.84 12.66 4.5 11 4.5 Z"/>
</svg>